<svg width="20" height="20" viewBox="0 0 20 20" fill="none" xmlns="http://www.w3.org/2000/svg">
<path fill-rule="evenodd" clip-rule="evenodd" d="M0.0738525 0H16.0437C18.2287 0 20.0001 1.79086 20.0001 4V20L0.0738525 0Z" fill="#0B74E5"/>
<path fill-rule="evenodd" clip-rule="evenodd" d="M12.6249 7.57123L16.805 3.17588C17.0222 2.94771 17.3809 2.94062 17.6067 3.16C17.8327 3.37928 17.8397 3.74221 17.6226 3.97081L13.0066 8.8244C12.8996 8.93661 12.752 9 12.598 9C12.4244 9 12.271 8.9237 12.165 8.7972L10.1343 6.37041C9.93189 6.12874 9.96163 5.76689 10.2007 5.56243C10.44 5.3578 10.7976 5.38793 11 5.62979L12.6249 7.57123Z" fill="white"/>
</svg>
